# xmcd
#
# Track frame offsets:
#	150
#	12022
#	23925
#	37387
#	50784
#	64876
#	79808
#	94680
#	107169
#	121995
#	135646
#	146487
#	159729
#	173820
#	185665
#	197666
#	208871
#	219297
#	234957
#	249478
#	260717
#	270707
#
# Disc length: 3825 seconds
#
# Revision: 0
# Processed by: cddbd v1.5.1PL0 Copyright (c) Steve Scherf et al.
# Submitted via: dBpowerAMP V4.0
#
DISCID=490eef16
DTITLE=dixon brothers - spinning room blues
DYEAR=1900
DGENRE=Country
TTITLE0=spinning room blues
TTITLE1=old true love
TTITLE2=story of george collins
TTITLE3=light of homer rogers
TTITLE4=i'm not turning backward
TTITLE5=are you sure
TTITLE6=glorious light is dawning
TTITLE7=that old vacant chair
TTITLE8=white flower for you
TTITLE9=i will meet my precious mother
TTITLE10=by the old oaken bucket louise
TTITLE11=faithless husband
TTITLE12=honey it's just because
TTITLE13=back to my wyoming home
TTITLE14=anywhere is home
TTITLE15=bootlegger's story
TTITLE16=new trouble in mind
TTITLE17=more pretty girls than one
TTITLE18=wman's answer to what is home wihouth love
TTITLE19=under the old cherry tree
TTITLE20=i can't tell why i love you
TTITLE21=death of jesse james
EXTD=
EXTT0=
EXTT1=
EXTT2=
EXTT3=
EXTT4=
EXTT5=
EXTT6=
EXTT7=
EXTT8=
EXTT9=
EXTT10=
EXTT11=
EXTT12=
EXTT13=
EXTT14=
EXTT15=
EXTT16=
EXTT17=
EXTT18=
EXTT19=
EXTT20=
EXTT21=
PLAYORDER=
